<?xml version="1.0" encoding="utf-8"?>
<!-- Generator: Adobe Illustrator 26.0.3, SVG Export Plug-In . SVG Version: 6.00 Build 0)  -->
<svg version="1.1" id="Layer_1" xmlns="http://www.w3.org/2000/svg" xmlns:xlink="http://www.w3.org/1999/xlink" x="0px" y="0px"
	 viewBox="0 0 226 174" style="enable-background:new 0 0 226 174;" xml:space="preserve">
<style type="text/css">
	.st0{fill:#F9F9F9;}
	.st1{fill:#D7D7D7;}
	.st2{fill:#3B3B3B;}
	.st3{fill:#F8F8F8;}
	.st4{fill:#FCFCFC;}
	.st5{fill:#C0C0C0;}
	.st6{fill:#DDDDDD;}
	
</style>
<path class="st0" d="M149.9,0l-32,23.8l6-14.1L149.9,0z"/>
<path class="st0" d="M76.1,0l31.7,24.1l-5.7-14.3L76.1,0z"/>
<path class="st0" d="M138.4,55.3l-8.5,13.1l18.2,5.1l5.2-17.9L138.4,55.3z"/>
<path class="st0" d="M72.7,55.6l5.2,17.9l18.2-5.1l-8.5-13.1L72.7,55.6z"/>
<path class="st0" d="M95.1,33.2L90,40.9l18,0.8l-0.6-19.6L95.1,33.2z"/>
<path class="st0" d="M130.9,33.2l-12.6-11.3l-0.4,19.8l18-0.8L130.9,33.2z"/>
<path class="st0" d="M96.1,68.4l10.9-5.3l-9.4-7.4L96.1,68.4z"/>
<path class="st0" d="M119,63.1l10.9,5.3l-1.5-12.7L119,63.1z"/>
<path class="st1" d="M129.9,68.4L119,63.1l0.9,7.1l-0.1,3L129.9,68.4z"/>
<path class="st1" d="M96.1,68.4l10.1,4.8l-0.1-3l0.9-7.1L96.1,68.4z"/>
<path class="st2" d="M106.4,51l-9.1-2.7l6.4-3L106.4,51z"/>
<path class="st2" d="M119.6,51l2.7-5.6l6.4,3L119.6,51z"/>
<path class="st3" d="M96.1,68.4l1.6-13.1l-10.1,0.3L96.1,68.4z"/>
<path class="st3" d="M128.3,55.3l1.6,13.1l8.5-12.8L128.3,55.3z"/>
<path class="st3" d="M135.9,40.8l-18,0.8l1.7,9.3l2.7-5.6l6.4,3L135.9,40.8z"/>
<path class="st3" d="M97.3,48.3l6.4-3l2.7,5.6l1.7-9.3l-18-0.8L97.3,48.3z"/>
<path class="st0" d="M90,40.9l7.6,14.8l-0.3-7.4L90,40.9z"/>
<path class="st0" d="M128.6,48.3l-0.3,7.4l7.6-14.8L128.6,48.3z"/>
<path class="st0" d="M108.1,41.7l-1.7,9.3l2.1,11l0.5-14.5L108.1,41.7z"/>
<path class="st0" d="M117.9,41.7l-0.9,5.8l0.4,14.5l2.1-11L117.9,41.7z"/>
<path class="st4" d="M119.6,51l-2.1,11l1.5,1.1l9.4-7.4l0.3-7.4L119.6,51z"/>
<path class="st4" d="M97.3,48.3l0.3,7.4l9.4,7.4l1.5-1.1l-2.1-11L97.3,48.3z"/>
<path class="st5" d="M119.8,73.2l0.1-3l-0.8-0.7h-12.1l-0.8,0.7l0.1,3l-10.1-4.8l3.5,2.9l7.2,5h12.3l7.2-5l3.5-2.9L119.8,73.2z"/>
<path class="st2" d="M119,63.1l-1.5-1.1h-8.9l-1.5,1.1l-0.9,7.1l0.8-0.7H119l0.8,0.7L119,63.1z"/>
<path class="st6" d="M151.3,25.4l2.7-13.2L149.9,0L119,23l11.9,10.1l16.8,4.9l3.7-4.4l-1.6-1.2l2.6-2.4l-2-1.5l2.6-2L151.3,25.4z"/>
<path class="st6" d="M72,12.2l2.7,13.2L73,26.7l2.6,2l-2,1.5l2.6,2.4l-1.6,1.2l3.7,4.4l16.8-4.9L107,23L76.1,0L72,12.2z"/>
<path class="st4" d="M147.7,38.1l-16.8-4.9l5.1,7.7l-7.6,14.8l10-0.1h14.9L147.7,38.1z"/>
<path class="st4" d="M95.1,33.2l-16.8,4.9l-5.6,17.5h14.9l10,0.1L90,40.9L95.1,33.2z"/>
<path class="st4" d="M117.9,41.7L119,23l4.9-13.3h-21.7L107,23l1.1,18.6l0.4,5.8l0,14.5h8.9l0-14.5L117.9,41.7z"/>

</svg>
